<?xml version="1.0" encoding="UTF-8" standalone="no"?>
<!-- Created with Inkscape (http://www.inkscape.org/) -->

<svg
   width="241.3121mm"
   height="208.98283mm"
   viewBox="0 0 241.3121 208.98283"
   version="1.1"
   id="svg1290"
   sodipodi:docname="templat-segitiga.svg"
   inkscape:version="1.2.2 (b0a8486541, 2022-12-01)"
   xml:space="preserve"
   xmlns:inkscape="http://www.inkscape.org/namespaces/inkscape"
   xmlns:sodipodi="http://sodipodi.sourceforge.net/DTD/sodipodi-0.dtd"
   xmlns="http://www.w3.org/2000/svg"
   xmlns:svg="http://www.w3.org/2000/svg"><sodipodi:namedview
     id="namedview1292"
     pagecolor="#ffffff"
     bordercolor="#000000"
     borderopacity="0.25"
     inkscape:showpageshadow="2"
     inkscape:pageopacity="0.0"
     inkscape:pagecheckerboard="0"
     inkscape:deskcolor="#d1d1d1"
     inkscape:document-units="mm"
     showgrid="false"
     inkscape:zoom="0.45611672"
     inkscape:cx="1155.406"
     inkscape:cy="556.875"
     inkscape:window-width="1278"
     inkscape:window-height="642"
     inkscape:window-x="0"
     inkscape:window-y="0"
     inkscape:window-maximized="1"
     inkscape:current-layer="layer1" /><defs
     id="defs1287" /><g
     inkscape:label="Layer 1"
     inkscape:groupmode="layer"
     id="layer1"
     transform="translate(-257.56663,-46.909033)"><g
       id="g2485"
       inkscape:export-filename="g2485.png"
       inkscape:export-xdpi="75.785675"
       inkscape:export-ydpi="75.785675"><path
         style="fill:#000000;stroke-width:0.264583"
         d="m 257.56663,46.909034 241.31209,4.5e-5 -20.10905,34.829813 -10.05472,-17.414581 -180.98479,-2.64e-4 10.05446,17.414938 60.32852,7.94e-4 10.05462,17.414983 -40.21887,69.661298 -30.16361,-52.24591 h 20.10897 l 10.05459,17.41523 20.10968,-34.830679 -60.32785,2.51e-4 z"
         id="path1943" /><path
         id="path2423"
         style="fill:#000000;stroke-width:0.264583"
         d="m 458.65986,81.73868 -80.43747,5.17e-4 10.0552,17.415474 -50.27393,87.075819 10.0552,17.41548 h 20.10885 l -10.05469,-17.41496 20.10989,-34.83095 20.10885,34.83043 -20.18585,34.69866 -19.88199,-0.12971 19.95899,35.09243 40.21822,-69.66138 -20.10885,-34.82991 40.21821,-5.2e-4 30.16405,-52.245389 z m -50.27342,17.415991 h 40.21925 l -20.10936,34.830949 -40.21925,-5.2e-4 z" /></g></g></svg>
