<?xml version="1.0" encoding="UTF-8" standalone="no"?>
<svg
   version="1.1"
   id="Layer_1"
   x="0px"
   y="0px"
   width="64px"
   height="64px"
   viewBox="0 0 64 64"
   enable-background="new 0 0 64 64"
   xml:space="preserve"
   sodipodi:docname="folder_type_kali.svg"
   inkscape:version="1.2.2 (b0a8486541, 2022-12-01)"
   xmlns:inkscape="http://www.inkscape.org/namespaces/inkscape"
   xmlns:sodipodi="http://sodipodi.sourceforge.net/DTD/sodipodi-0.dtd"
   xmlns="http://www.w3.org/2000/svg"
   xmlns:svg="http://www.w3.org/2000/svg"><defs
   id="defs6"><radialGradient
     id="fillGrad0"
     cx="371.63521"
     cy="372.76357"
     fx="371.63521"
     fy="372.76357"
     r="304.55998"
     gradientUnits="userSpaceOnUse">
   		<stop
   offset="0.000%"
   style="stop-color:rgb(103,191,255);stop-opacity:1.000"
   id="stop440" />
		<stop
   offset="100.000%"
   style="stop-color:rgb(18,117,255);stop-opacity:1.000"
   id="stop442" />
	</radialGradient></defs><sodipodi:namedview
   id="namedview4"
   pagecolor="#ffffff"
   bordercolor="#000000"
   borderopacity="0.25"
   inkscape:showpageshadow="2"
   inkscape:pageopacity="0.0"
   inkscape:pagecheckerboard="0"
   inkscape:deskcolor="#d1d1d1"
   showgrid="false"
   inkscape:zoom="5.590563"
   inkscape:cx="31.660497"
   inkscape:cy="31.481624"
   inkscape:window-width="1280"
   inkscape:window-height="656"
   inkscape:window-x="0"
   inkscape:window-y="0"
   inkscape:window-maximized="1"
   inkscape:current-layer="Layer_1" />  
<g
   id="g484"
   transform="matrix(0.08831424,0,0,0.08831424,0.25454254,0.21152723)"><path
     transform="rotate(-24.13,360,359.89)"
     fill="url(#fillGrad0)"
     stroke="#000000"
     fill-opacity="1"
     stroke-opacity="0"
     fill-rule="nonzero"
     stroke-width="0"
     stroke-linejoin="miter"
     stroke-linecap="square"
     d="m 360,-0.11 c 198.82,0 360,161.18 360,360 0,198.82 -161.18,360 -360,360 -198.82,0 -360,-161.18 -360,-360 0,-198.82 161.18,-360 360,-360 z"
     id="path447"
     style="fill:url(#fillGrad0)" /><path
     fill="#111111"
     stroke="#000000"
     fill-opacity="0.424"
     stroke-opacity="0"
     fill-rule="nonzero"
     stroke-width="0"
     stroke-linejoin="miter"
     stroke-linecap="square"
     d="m 360.68,205.52 c -95.73,-6.45 -173.99,-5.65 -364.57,20.85 l 9.52,-8.04 c 140.81,-22.4 231.68,-36.24 353.46,-28.94 z"
     id="path449" /><path
     fill="#111111"
     stroke="#000000"
     fill-opacity="0.424"
     stroke-opacity="0"
     fill-rule="nonzero"
     stroke-width="0"
     stroke-linejoin="miter"
     stroke-linecap="square"
     d="m 368.16,233.25 c -82.08,0.47 -197.4,31.17 -300.44,87.34 l 6.14,-8.98 C 214.3,230.17 312.01,217.78 363.7,216.77 Z"
     id="path451" /><path
     fill="#111111"
     stroke="#000000"
     fill-opacity="0.424"
     stroke-opacity="0"
     fill-rule="nonzero"
     stroke-width="0"
     stroke-linejoin="miter"
     stroke-linecap="square"
     d="M 677.75,693.73 C 649.09,578.86 581.54,494.72 456.66,481.81 302.52,471.34 303.44,320.08 391.2,276.24 Q 366.21,235.75 361.4,184.98 C 288.66,151.33 170.76,130.36 1.71,127.69 l 7.54,-3.41 c 177.44,-4.18 305.86,15.7 366.94,51.55 -3.75,62.5 19.27,88.92 85.81,91.03 q 41.25,8.05 55.13,19.57 1.22,-2.34 -0.69,-10.19 10.73,15.23 24.86,21.44 1.73,-5.11 -3.63,-15.34 14.24,17.81 29.39,27.76 l -1.88,-14.33 q 13.82,10.97 22.04,26.16 l 16.97,-0.85 21.98,32.58 -7.03,3.47 -12.29,-18.12 v 7.4 c 30.28,17.04 22.07,24.81 52.39,32.14 q -18.63,6.72 -20.6,16.66 -9.19,-16.08 -52.57,-39.54 -11.99,-6.09 -8.4,-22.12 c -39.57,-18.63 -86.82,-40.98 -131.48,-44.19 -94.37,0 -142.75,151.26 22.3,171.15 172.12,14.97 227.22,63.29 245.69,154.57 C 662.98,498.07 593.7,506.17 566.94,493.6 c 79.55,51.85 118.28,151.23 110.81,200.13 z"
     id="path453" /><path
     fill="#111111"
     stroke="#000000"
     fill-opacity="0.424"
     stroke-opacity="0"
     fill-rule="nonzero"
     stroke-width="0"
     stroke-linejoin="miter"
     stroke-linecap="square"
     d="m 593.41,317.3 8.46,-3.06 q -58.84,-60.62 -144.31,-85.07 92.05,38.58 135.85,88.13 z"
     id="path455" /><path
     fill="#ffffff"
     stroke="#000000"
     fill-opacity="1"
     stroke-opacity="0"
     fill-rule="nonzero"
     stroke-width="0"
     stroke-linejoin="miter"
     stroke-linecap="square"
     d="m 362.12,189.39 c -95.73,-6.46 -174,-5.66 -364.57,20.84 l 9.52,-8.04 c 140.81,-22.4 231.68,-36.23 353.46,-28.94 z"
     id="path457" /><path
     fill="#ffffff"
     stroke="#000000"
     fill-opacity="1"
     stroke-opacity="0"
     fill-rule="nonzero"
     stroke-width="0"
     stroke-linejoin="miter"
     stroke-linecap="square"
     d="m 369.6,217.11 c -82.09,0.48 -197.4,31.17 -300.44,87.34 l 6.14,-8.98 c 140.44,-81.43 238.15,-93.83 289.84,-94.84 z"
     id="path459" /><path
     fill="#ffffff"
     stroke="#000000"
     fill-opacity="1"
     stroke-opacity="0"
     fill-rule="nonzero"
     stroke-width="0"
     stroke-linejoin="miter"
     stroke-linecap="square"
     d="M 679.19,677.59 C 650.53,562.72 582.98,478.58 458.1,465.67 303.96,455.21 304.88,303.94 392.64,260.11 q -24.99,-40.49 -29.8,-91.27 C 290.1,135.19 172.2,114.23 3.14,111.55 l 7.55,-3.4 c 177.43,-4.19 305.86,15.69 366.94,51.54 -3.75,62.5 19.27,88.93 85.81,91.03 q 41.25,8.06 55.13,19.58 1.22,-2.34 -0.69,-10.19 10.73,15.22 24.86,21.43 1.72,-5.11 -3.63,-15.33 14.23,17.8 29.39,27.75 l -1.88,-14.33 q 13.82,10.97 22.04,26.16 l 16.97,-0.85 21.98,32.58 -7.03,3.47 -12.3,-18.11 v 7.39 c 30.29,17.05 22.08,24.82 52.4,32.14 q -18.63,6.73 -20.6,16.66 -9.19,-16.07 -52.57,-39.54 -12,-6.09 -8.4,-22.12 c -39.57,-18.63 -86.82,-40.98 -131.48,-44.19 -94.38,0 -142.75,151.26 22.3,171.15 172.12,14.97 227.22,63.29 245.69,154.57 -51.2,-117 -120.48,-108.91 -147.24,-121.48 79.55,51.85 118.27,151.24 110.81,200.13 z"
     id="path461" /><path
     fill="#ffffff"
     stroke="#000000"
     fill-opacity="1"
     stroke-opacity="0"
     fill-rule="nonzero"
     stroke-width="0"
     stroke-linejoin="miter"
     stroke-linecap="square"
     d="m 594.85,301.16 8.46,-3.05 Q 544.46,237.48 459,213.03 q 92.05,38.59 135.85,88.13 z"
     id="path463" /><path
     fill="#3f3f3f"
     stroke="#000000"
     fill-opacity="0.22"
     stroke-opacity="0"
     fill-rule="nonzero"
     stroke-width="0"
     stroke-linejoin="miter"
     stroke-linecap="square"
     d="M 212.86,31.45 C 394.31,-49.82 607.29,31.4 688.55,212.86 769.82,394.31 688.6,607.29 507.14,688.55 325.69,769.82 112.71,688.6 31.44,507.14 -49.82,325.69 31.4,112.71 212.86,31.45 Z M 138.48,623.46 C 290.8,751.53 513.45,737.4 635.79,591.89 758.14,446.39 733.84,224.61 581.52,96.54 429.21,-31.53 206.55,-17.4 84.21,128.11 -38.14,273.61 -13.84,495.39 138.48,623.46 Z"
     id="path465" /></g></svg>
