<?xml version="1.0" ?><svg height="512" width="512"  version="1.1" viewBox="0 0 60 60"  xmlns="http://www.w3.org/2000/svg" xmlns:xlink="http://www.w3.org/1999/xlink"><title/><desc/><defs/><g fill="none" fill-rule="evenodd" id="Page-1" stroke="none" stroke-width="1"><g id="Social_icons" transform="translate(-822.000000, -1655.000000)"><g id="Ubuntu" transform="translate(822.000000, 1655.000000)"><circle cx="30" cy="30" fill="#DD4814" id="Oval" r="30"/><path d="M14.7488395,30.0001081 C14.7488395,32.163525 13.0146699,33.9157494 10.8751285,33.9157494 C8.73487828,33.9157494 7,32.1628086 7,30.0001081 C7,27.8374076 8.73487828,26.0837505 10.8751285,26.0837505 C13.0139612,26.0837505 14.7488395,27.8374076 14.7488395,30.0001081 L14.7488395,30.0001081 Z M36.7912902,49.0417584 C37.862124,50.9143318 40.2298643,51.5561933 42.0838028,50.4744848 C43.9349066,49.3934927 44.5713121,46.9986906 43.5004784,45.1254008 C42.431062,43.252111 40.0619043,42.6109659 38.2093831,43.6926744 C36.3568619,44.7750992 35.7218738,47.169185 36.7912902,49.0417584 L36.7912902,49.0417584 Z M43.5004784,14.874099 C44.5713121,13.0015256 43.9370327,10.6067234 42.0838028,9.525015 C40.2319904,8.44402293 37.862124,9.08588436 36.7912902,10.9584578 C35.7218738,12.8310312 36.3568619,15.2265497 38.2093831,16.3075418 C40.0619043,17.3899666 42.4324794,16.7473888 43.5004784,14.874099 L43.5004784,14.874099 Z M30.388257,18.8320057 C36.1619716,18.8320057 40.8988696,23.305694 41.3935367,29.0100941 L47,28.9219815 C46.7342405,24.6811113 44.9157365,20.86791 42.1128592,18.0569008 C40.6274406,18.6364386 38.9060274,18.5576386 37.4206088,17.6901228 C35.9337727,16.822607 35.0053861,15.353346 34.7594699,13.7623034 C33.3661812,13.3804818 31.9020233,13.1756019 30.388257,13.1756019 C27.7384572,13.1756019 25.2318132,13.8024197 23.0058113,14.9177972 L25.7335672,19.870016 C27.1488253,19.2037982 28.726374,18.8320057 30.388257,18.8320057 L30.388257,18.8320057 Z M19.3404557,30.0001081 C19.3404557,26.2212922 21.1965203,22.8816069 24.037667,20.8607463 L21.1589596,15.9973565 C17.8245633,18.2481697 15.3398887,21.6824149 14.2924418,25.7069434 C15.532653,26.7170155 16.3263882,28.26436 16.3263882,30.0001081 C16.3263882,31.7358561 15.532653,33.2832007 14.2924418,34.2932728 C15.3405974,38.3185176 17.8245633,41.7520464 21.1589596,44.003576 L24.037667,39.1401862 C21.1965203,37.1193256 19.3404557,33.778924 19.3404557,30.0001081 L19.3404557,30.0001081 Z M30.388257,41.1689268 C28.726374,41.1689268 27.1488253,40.7964179 25.7335672,40.1316329 L23.0058113,45.0838517 C25.2318132,46.1992292 27.7384572,46.8253307 30.388257,46.8253307 C31.9020233,46.8253307 33.3661812,46.6211671 34.7594699,46.2386292 C35.0053861,44.6468702 35.9337727,43.1783256 37.4206088,42.3108097 C38.9060274,41.4432939 40.6274406,41.3652103 42.1128592,41.9440318 C44.9157365,39.1315898 46.7342405,35.3176722 47,31.0789511 L41.3935367,30.9894057 C40.8988696,36.6945222 36.1619716,41.1689268 30.388257,41.1689268 L30.388257,41.1689268 Z" fill="#FFFFFF" id="Shape"/></g></g></g></svg>