<?xml version="1.0" encoding="UTF-8" standalone="no"?>
<svg
   viewBox="0 0 551.054 100"
   version="1.1"
   id="svg318"
   sodipodi:docname="nycucsit.svg"
   inkscape:version="1.2.2 (b0a8486541, 2022-12-01)"
   xmlns:inkscape="http://www.inkscape.org/namespaces/inkscape"
   xmlns:sodipodi="http://sodipodi.sourceforge.net/DTD/sodipodi-0.dtd"
   xmlns="http://www.w3.org/2000/svg"
   xmlns:svg="http://www.w3.org/2000/svg">
  <defs
     id="defs322" />
  <sodipodi:namedview
     id="namedview320"
     pagecolor="#ffffff"
     bordercolor="#000000"
     borderopacity="0.25"
     inkscape:showpageshadow="2"
     inkscape:pageopacity="0.0"
     inkscape:pagecheckerboard="0"
     inkscape:deskcolor="#d1d1d1"
     showgrid="false"
     inkscape:zoom="1.4602698"
     inkscape:cx="314.32547"
     inkscape:cy="49.990762"
     inkscape:window-width="1280"
     inkscape:window-height="656"
     inkscape:window-x="0"
     inkscape:window-y="0"
     inkscape:window-maximized="1"
     inkscape:current-layer="svg318" />
  <title
     id="title249">nycucsit-hor-crop</title>
  <g
     id="g568">
    <path
       d="M 0,0 V 52.772 H 47.07 V 63.114 H 7.412 v 16.2 H 0 V 100 H 20.684 V 79.316 H 13.277 V 68.973 h 33.8 V 79.316 H 39.658 V 100 H 60.342 V 79.316 H 52.93 V 68.973 h 33.8 V 79.316 H 79.317 V 100 h 20.685 V 79.316 h -7.415 v -16.2 H 52.93 V 52.772 H 100 V 0 Z m 14.825,85.175 v 8.966 H 5.859 v -8.966 z m 79.315,0 v 8.966 h -8.963 v -8.966 z m -39.657,0 v 8.966 H 45.517 V 85.175 Z M 94.14,46.913 H 5.859 v -17.6 H 94.14 Z m 0,-23.457 H 5.859 V 5.856 H 94.14 Z"
       id="path251" />
    <rect
       x="11.727"
       y="11.729"
       width="5.8629999"
       height="5.8590002"
       id="rect253" />
    <rect
       x="23.452999"
       y="11.729"
       width="5.8629999"
       height="5.8590002"
       id="rect255" />
    <rect
       x="70.68"
       y="11.729"
       width="5.8629999"
       height="5.8590002"
       id="rect257" />
    <rect
       x="82.407997"
       y="11.729"
       width="5.8629999"
       height="5.8590002"
       id="rect259" />
    <rect
       x="11.727"
       y="35.183998"
       width="5.8629999"
       height="5.8590002"
       id="rect261" />
    <rect
       x="23.452999"
       y="35.183998"
       width="5.8629999"
       height="5.8590002"
       id="rect263" />
    <rect
       x="70.68"
       y="35.183998"
       width="5.8629999"
       height="5.8590002"
       id="rect265" />
    <rect
       x="82.407997"
       y="35.183998"
       width="5.8629999"
       height="5.8590002"
       id="rect267" />
    <path
       d="m 157.78564,30.521068 h 17.81815 a 4.435978,5.5227285 0 0 1 4.45454,5.543735 v 27.729181 h -3.00681 V 51.637259 H 156.33791 V 63.793984 H 153.3311 V 36.064803 a 4.435978,5.5227285 0 0 1 4.45454,-5.543735 z m -1.44773,17.376953 h 20.71361 V 36.064803 a 1.4612236,1.8192023 0 0 0 -1.44773,-1.802397 h -17.81815 a 1.4612236,1.8192023 0 0 0 -1.44773,1.802397 z"
       id="path289"
       style="stroke-width:1.8827" />
    <path
       d="m 184.14166,28.208202 h 3.03718 v 29.995831 a 1.4544743,1.8107995 0 0 0 1.44773,1.800296 h 3.63787 v 3.791756 h -3.63787 a 4.5000963,5.6025549 0 0 1 -4.49166,-5.592052 z"
       id="path291"
       style="stroke-width:1.8827" />
    <path
       d="m 226.53402,36.99121 h 3.30547 l -8.13122,26.804875 h -2.63561 l -8.01816,-22.13923 -7.60984,22.13923 h -2.67272 L 192.30831,36.99121 h 3.26666 l 6.53333,19.956607 6.94165,-19.956607 h 4.00909 l 7.38711,19.916694 z"
       id="path293"
       style="stroke-width:1.8827" />
    <path
       d="m 250.10595,36.99121 a 4.3718596,5.442902 0 0 1 3.20592,1.640643 4.3212398,5.3798812 0 0 1 1.3178,3.951408 v 21.217025 h -17.44694 a 4.5000963,5.6025549 0 0 1 -4.49166,-5.592051 v -9.711516 h 18.86935 v -5.902954 a 1.457849,1.8150009 0 0 0 -1.44772,-1.804498 h -17.41657 v -3.781251 z m 1.44772,23.013119 v -7.717955 h -15.81192 v 5.917659 a 1.4510997,1.8065981 0 0 0 1.44604,1.800296 z"
       id="path295"
       style="stroke-width:1.8827" />
    <path
       d="m 279.98679,68.785236 a 4.4072934,5.4870166 0 0 1 -1.29755,3.991322 4.3161779,5.3735791 0 0 1 -3.19411,1.638542 h -13.43617 v -3.833769 h 13.43617 a 1.457849,1.8150009 0 0 0 1.44773,-1.804497 V 63.787682 H 262.57697 A 4.5000963,5.6025549 0 0 1 258.08531,58.19563 V 37.08154 h 3.03719 v 21.122493 a 1.457849,1.8150009 0 0 0 1.44772,1.800296 h 12.91816 a 1.4510997,1.8065981 0 0 0 1.44773,-1.800296 V 37.08154 h 3.03718 z"
       id="path297"
       style="stroke-width:1.8827" />
    <path
       d="m 305.67632,42.593765 v 0.369722 h -3.08106 v -0.369722 a 1.4629109,1.821303 0 0 0 -1.44772,-1.804498 h -12.91816 a 1.457849,1.8150009 0 0 0 -1.44604,1.804498 v 4.111061 a 1.4510997,1.8065981 0 0 0 1.44604,1.802397 h 12.91816 a 4.3769216,5.4492041 0 0 1 3.20591,1.640643 4.3263018,5.3861833 0 0 1 1.31781,3.951408 v 4.115263 a 4.5000963,5.6025549 0 0 1 -4.52879,5.592051 h -12.91816 a 4.5000963,5.6025549 0 0 1 -4.49166,-5.592051 v -0.369723 h 3.04563 v 0.369723 a 1.4510997,1.8065981 0 0 0 1.44603,1.800296 h 12.91816 a 1.457849,1.8150009 0 0 0 1.44773,-1.800296 v -4.115263 a 1.4629109,1.821303 0 0 0 -1.44773,-1.802397 h -12.91816 a 4.5000963,5.6025549 0 0 1 -4.49166,-5.592051 v -4.111061 a 4.5000963,5.6025549 0 0 1 4.49166,-5.592052 h 12.91816 a 4.3718596,5.442902 0 0 1 3.20592,1.640644 4.3212398,5.3798812 0 0 1 1.32793,3.951408 z"
       id="path299"
       style="stroke-width:1.8827" />
    <path
       d="m 353.03954,36.99121 h 3.30378 l -8.12953,26.804875 h -2.63561 l -8.01817,-22.13923 -7.60814,22.13923 h -2.67273 L 318.81552,36.99121 h 3.2751 l 6.53501,19.956607 6.93997,-19.956607 h 4.01077 l 7.38542,19.916694 z"
       id="path301"
       style="stroke-width:1.8827" />
    <path
       d="m 359.21177,28.208202 h 3.03719 v 3.781252 h -3.03719 z m 0,35.587883 V 36.99121 h 3.03719 v 26.804875 z"
       id="path303"
       style="stroke-width:1.8827" />
    <path
       d="m 379.32131,40.778764 h -9.31066 v 17.435773 a 1.4510997,1.8065981 0 0 0 1.44604,1.800296 h 7.86969 v 3.791755 h -7.86969 a 4.3060539,5.3609749 0 0 1 -3.19242,-1.640643 4.3735469,5.4450027 0 0 1 -1.29924,-3.951408 V 28.208202 h 3.04562 v 8.783008 h 9.31573 z"
       id="path305"
       style="stroke-width:1.8827" />
    <path
       d="m 399.84931,36.99121 a 4.5000963,5.6025549 0 0 1 4.49166,5.592051 v 21.217025 h -3.03718 V 42.593765 a 1.457849,1.8150009 0 0 0 -1.44773,-1.804498 H 386.9379 a 1.4595363,1.8171016 0 0 0 -1.03771,0.533577 1.3650461,1.6994627 0 0 0 -0.44545,1.260417 v 21.217025 h -3.03718 V 28.208202 h 3.03718 v 8.783008 z"
       id="path307"
       style="stroke-width:1.8827" />
    <path
       d="m 438.75397,68.785236 a 4.4106681,5.491218 0 0 1 -1.30093,3.991322 4.3094286,5.3651763 0 0 1 -3.19073,1.638542 h -13.43955 v -3.833769 h 13.43955 a 1.4629109,1.821303 0 0 0 1.44604,-1.804497 v -4.989152 h -14.3642 A 4.5000963,5.6025549 0 0 1 416.85249,58.19563 V 37.08154 h 3.03718 v 21.122493 a 1.457849,1.8150009 0 0 0 1.4511,1.800296 h 12.91816 a 1.457849,1.8150009 0 0 0 1.44604,-1.800296 V 37.08154 h 3.04562 z"
       id="path309"
       style="stroke-width:1.8827" />
    <path
       d="m 446.25075,36.99121 h 12.91985 a 4.5000963,5.6025549 0 0 1 4.5271,5.592051 v 15.620772 a 4.5000963,5.6025549 0 0 1 -4.5271,5.592052 H 446.25075 A 4.5017836,5.6046556 0 0 1 441.7591,58.204033 V 42.593765 a 4.5017836,5.6046556 0 0 1 4.49165,-5.592052 z m 12.91985,3.781252 h -12.91985 a 1.4629109,1.821303 0 0 0 -1.44941,1.804497 v 15.620772 a 1.457849,1.8150009 0 0 0 1.44941,1.800296 h 12.91985 a 1.457849,1.8150009 0 0 0 1.44604,-1.800296 V 42.593765 a 1.4629109,1.821303 0 0 0 -1.44604,-1.804498 z"
       id="path311"
       style="stroke-width:1.8827" />
    <path
       d="m 485.56037,36.99121 h 3.04562 v 21.217025 a 4.5000963,5.6025549 0 0 1 -4.52878,5.592051 h -12.91816 a 4.5000963,5.6025549 0 0 1 -4.49166,-5.592051 V 36.99121 h 3.03719 v 21.217025 a 1.4038546,1.7477787 0 0 0 0.42858,1.27092 1.390356,1.7309731 0 0 0 1.01239,0.529376 h 12.92829 a 1.457849,1.8150009 0 0 0 1.03939,-0.529376 1.37517,1.7120668 0 0 0 0.44377,-1.27092 z"
       id="path313"
       style="stroke-width:1.8827" />
    <path
       d="m 492.6522,54.412278 v -23.89121 h 3.03718 v 23.89121 z m 3.03718,9.383807 h -3.03718 v -3.791756 h 3.03718 z"
       id="path315"
       style="stroke-width:1.8827" />
  </g>
</svg>
