<svg xmlns="http://www.w3.org/2000/svg" viewBox="0 0 551.054 100"><title>nycucsit-hor-crop</title><g id="圖層_2" data-name="圖層 2"><path d="M23.423,30V82.772h47.07V93.114H30.835v16.2H23.423V130H44.107V109.316H36.7V98.973h33.8v10.343H63.081V130H83.765V109.316H76.353V98.973h33.8v10.343h-7.413V130h20.685V109.316H116.01v-16.2H76.353V82.772h47.07V30Zm14.825,85.175v8.966H29.282v-8.966Zm79.315,0v8.966H108.6v-8.966Zm-39.657,0v8.966H68.94v-8.966Zm39.657-38.262H29.282v-17.6h88.281Zm0-23.457H29.282v-17.6h88.281Z" transform="translate(-23.423 -30)"/><rect x="11.727" y="11.729" width="5.863" height="5.859"/><rect x="23.453" y="11.729" width="5.863" height="5.859"/><rect x="70.68" y="11.729" width="5.863" height="5.859"/><rect x="82.408" y="11.729" width="5.863" height="5.859"/><rect x="11.727" y="35.184" width="5.863" height="5.859"/><rect x="23.453" y="35.184" width="5.863" height="5.859"/><rect x="70.68" y="35.184" width="5.863" height="5.859"/><rect x="82.408" y="35.184" width="5.863" height="5.859"/><path d="M185.535,53.893a1.422,1.422,0,0,1,1.927-.739q1.19.453.575,1.641a34.176,34.176,0,0,1-6.071,7.588q-1.148,1.148.082,1.928a61.086,61.086,0,0,0,13.535,5.537q1.232.327.575,1.517-.738,1.394-1.928,1.067a75.287,75.287,0,0,1-14.766-6.6,1.843,1.843,0,0,0-2.214.2,55.824,55.824,0,0,1-15.34,6.481,1.463,1.463,0,0,1-1.805-.944q-.738-1.435.574-1.722a48.842,48.842,0,0,0,14.233-5.619q1.107-.655-.082-1.641a50.079,50.079,0,0,1-7.342-7.014q-.9-1.066.082-1.8,1.148-.9,2.174.369a38.168,38.168,0,0,0,7.341,7.054,1.6,1.6,0,0,0,2.215-.164A35.214,35.214,0,0,0,185.535,53.893Zm-8.9-17.555a1.455,1.455,0,0,1,1.969.738,18.9,18.9,0,0,1,.9,2.215,1.354,1.354,0,0,0,1.354.984h13.412a1.07,1.07,0,0,1,1.23,1.19,1.087,1.087,0,0,1-1.23,1.23H161.623a1.07,1.07,0,0,1-1.231-1.189,1.088,1.088,0,0,1,1.231-1.231h14.15q1.067,0,.574-1.312l-.41-.82q-.738-1.355.369-1.723Zm-7.054,9.516q1.393-1.312,2.378-.534.986.822-.123,2.051a32.937,32.937,0,0,1-8.285,6.358,1.312,1.312,0,0,1-1.968-.575q-.862-1.394.287-1.927A38.163,38.163,0,0,0,169.58,45.854Zm15.5,1.353q-1.393-1.066-.328-1.8a2.025,2.025,0,0,1,2.3.246,78.017,78.017,0,0,1,7.055,5.25q1.313,1.068.287,2.092a1.493,1.493,0,0,1-2.338-.041Q188.405,49.669,185.083,47.207Z" transform="translate(-23.423 -30)"/><path d="M218.265,37.363a1.087,1.087,0,0,1,1.231-1.23h.451a1.087,1.087,0,0,1,1.23,1.23v7.916a.907.907,0,0,0,1.026,1.026h13.7a1.106,1.106,0,0,1,1.23,1.271q0,1.314-1.23,1.313H223.72q-1.024,0-.7,1.312a34.539,34.539,0,0,0,6.685,12.633,24.193,24.193,0,0,0,7.547,5.906q1.313.615.657,1.764l-.164.328a1.4,1.4,0,0,1-2.092.7,29.454,29.454,0,0,1-7.014-5.619,38.445,38.445,0,0,1-7.506-13.043q-.451-1.107-.861.328-2.994,10.419-14.479,17.76l-1.64.984q-1.437.779-2.174-.451a1.206,1.206,0,0,1,.574-1.845,36.22,36.22,0,0,0,12.428-11.485A21.865,21.865,0,0,0,218.019,50q.163-1.107-.82-1.107H203.746a1.106,1.106,0,0,1-1.231-1.272q0-1.312,1.231-1.312H217.24a.907.907,0,0,0,1.025-1.026Z" transform="translate(-23.423 -30)"/><path d="M243.326,46.838a1.034,1.034,0,0,1,1.189-1.149h8.9q1.23,0,1.23,1.108,0,1.148-1.23,1.148h-8.86Q243.326,47.945,243.326,46.838Zm4.47,5.5a1.088,1.088,0,0,1,1.231-1.23h25.1a1.087,1.087,0,0,1,1.231,1.23v13.74a1.088,1.088,0,0,1-1.231,1.231h-17.39q-1.068,0-.246.984.82.944-.534,1.518a56.678,56.678,0,0,1-10.376,2.912,1.582,1.582,0,0,1-1.887-.7q-.451-1.147.779-1.353a47.49,47.49,0,0,0,6.152-1.272,17.793,17.793,0,0,0,4.758-1.6q.206-.492-.738-.492h-5.619a1.088,1.088,0,0,1-1.231-1.231Zm-3.773-13.289q0-1.107,1.189-1.107h7.916q1.232,0,1.231,1.066t-1.231,1.066h-7.875Q244.023,40.07,244.023,39.045ZM272.57,54.057q0-1.067-.985-1.067H251.57a.907.907,0,0,0-1.026,1.026V55a.906.906,0,0,0,1.026,1.025h19.974A.906.906,0,0,0,272.57,55Zm0,4.634q0-1.067-.985-1.066H251.57a.907.907,0,0,0-1.026,1.025v1.067a.907.907,0,0,0,1.026,1.025h19.974a.907.907,0,0,0,1.026-1.025Zm0,4.8q0-1.107-.944-1.107H251.57a.907.907,0,0,0-1.026,1.025v.9a.907.907,0,0,0,1.026,1.025h19.974a.907.907,0,0,0,1.026-1.025ZM260.06,37.281q.656-1.23,1.723-.9,1.107.328.82.861t.82.533h13.946q1.23,0,1.23,1.026a4.085,4.085,0,0,1-1.271,2.461,26.842,26.842,0,0,1-2.051,1.928q-1.149.82-1.846.164-.779-.739.656-2.092l.37-.451q.819-1.066-.288-1.067H262.316a2.259,2.259,0,0,0-1.8,1.231l-1.025,1.271q-1.107,1.107-1.928.287-.861-.861.287-2.051A21.232,21.232,0,0,0,260.06,37.281Zm5.824,5.619a1.545,1.545,0,0,1,1.6-1.23h.287q1.23,0,.943,1.066-.451,1.068.78,1.723a61.277,61.277,0,0,0,9.392,3.527q1.27.33.615,1.477-.738,1.313-1.845.9a51.062,51.062,0,0,1-9.311-4.511,1.56,1.56,0,0,0-2.174.369,21.317,21.317,0,0,1-6.89,3.117,1.5,1.5,0,0,1-1.887-.656q-.533-1.026.7-1.272Q263.793,46.141,265.884,42.9Zm.944,26.5a1.5,1.5,0,0,1,1.722-.656q4.962.9,9.8,2.174,1.27.287.7,1.518a1.322,1.322,0,0,1-1.845.656A102.425,102.425,0,0,0,266.828,70.3Q266.375,70.217,266.828,69.4Z" transform="translate(-23.423 -30)"/><path d="M287.048,40.727q0-1.312,1.231-1.313h30.557a1.106,1.106,0,0,1,1.23,1.272q0,1.313-1.23,1.312H306a.906.906,0,0,0-1.025,1.025V66.73A.906.906,0,0,0,306,67.756h14.479q1.23,0,1.23,1.312t-1.23,1.313H286.638q-1.23,0-1.23-1.313t1.23-1.312h14.356a.907.907,0,0,0,1.026-1.026V43.023A.907.907,0,0,0,300.994,42H288.279A1.106,1.106,0,0,1,287.048,40.727Z" transform="translate(-23.423 -30)"/><path d="M336.6,63.654q1.353-1.23,2.174-.287.9,1.068-.37,2.338a27.851,27.851,0,0,1-7.793,4.963,1.518,1.518,0,0,1-1.968-.779q-.74-1.149.533-1.682A27.575,27.575,0,0,0,336.6,63.654ZM346.6,41.834a2.322,2.322,0,0,1,2.46-.574q1.231.41.041,1.476a46.5,46.5,0,0,1-7.793,5.537,10.215,10.215,0,0,0-1.394.9q-.123.329.082.369a53.279,53.279,0,0,0,8.408-.82,1.81,1.81,0,0,0,.821-.246,50.76,50.76,0,0,0,4.1-3.118,1.738,1.738,0,0,1,2.3-.328q1.149.78,0,1.764a53.754,53.754,0,0,1-18.088,10.377q-.984.575-.82.738a1.587,1.587,0,0,0,.738.2A75.771,75.771,0,0,0,355.463,55.9q.082-.2-1.025-1.435-1.354-1.477-.247-2.215,1.067-.7,2.3.451a38.286,38.286,0,0,1,4.922,5.865,1.245,1.245,0,0,1-.451,1.969,1.442,1.442,0,0,1-2.215-.451l-.7-1.066a1.817,1.817,0,0,0-1.969-.657L348.7,59.471a1.106,1.106,0,0,0-.984,1.189v9.065a2.778,2.778,0,0,1-2.379,3.281,13.27,13.27,0,0,1-4.307.123,1.78,1.78,0,0,1-1.64-1.559q-.206-1.476,1.025-1.189a11.911,11.911,0,0,0,2.256.2q1.845.409,2.256-1.641V60.906q0-1.024-1.272-.943-5.988.532-11.648.615a1.266,1.266,0,0,1-1.395-1.23l-.041-.41a1.386,1.386,0,0,1,1.067-1.641,79.649,79.649,0,0,0,10.418-4.471q1.024-.533,1.107-.82-.041-.246-1.394-.2-3.857.492-7.711.779-1.355.041-1.641-1.025a1.522,1.522,0,0,1,1.067-1.928A61.749,61.749,0,0,0,346.6,41.834Zm-1.764-4.963q1.272-1.107,2.3-.533,1.147.615-.123,1.846a45.986,45.986,0,0,1-11.977,7.177,1.461,1.461,0,0,1-1.928-.492q-.7-.944.575-1.476A48.669,48.669,0,0,0,344.84,36.871Zm8.326,25.922a2.057,2.057,0,0,1,2.461.082,60.206,60.206,0,0,1,7.014,5.045q1.313,1.067.287,2.092a1.52,1.52,0,0,1-2.379,0,56.53,56.53,0,0,0-7.793-6.071Q352.141,63.531,353.166,62.793Z" transform="translate(-23.423 -30)"/><path d="M375.848,36.42l.533-.123q1.067-.246,1.6,1.107a29.549,29.549,0,0,1,.944,3.282,1.163,1.163,0,0,0,1.23.984h5.291q1.232,0,1.231,1.066T385.445,43.8H370.311q-1.231,0-1.231-1.067t1.231-1.066h4.88q1.026,0,.739-1.313a19.876,19.876,0,0,0-.739-2.378Q374.659,36.748,375.848,36.42Zm-4.8,24.937q0-1.27,1.189-1.271h10.828a1.087,1.087,0,0,1,1.231,1.23v9.639a1.071,1.071,0,0,1-1.19,1.231q-1.19,0-1.189-.862,0-.944-1.025-.943h-6.358q-1.025,0-1.025,1.353,0,1.313-1.231,1.313a1.087,1.087,0,0,1-1.23-1.231Zm.369-12.3q0-1.066,1.189-1.067h10.172q1.232,0,1.231,1.026,0,1.066-1.231,1.066H372.648Q371.418,50.078,371.418,49.053Zm0,5.742q0-1.107,1.189-1.107h10.172q1.232,0,1.231,1.066t-1.231,1.066H372.648Q371.418,55.82,371.418,54.8Zm10.5,8.49q0-1.066-.984-1.066h-6.4a.906.906,0,0,0-1.025,1.025v4.061a.906.906,0,0,0,1.025,1.025h6.358a.906.906,0,0,0,1.025-1.025Zm13.412-26q0-1.312,1.149-1.312h.369a1.087,1.087,0,0,1,1.23,1.23v10.91a.907.907,0,0,0,1.026,1.026h5.824a1.069,1.069,0,0,1,1.23,1.189,1.087,1.087,0,0,1-1.23,1.231H399.1a.907.907,0,0,0-1.026,1.025V71.816a1.087,1.087,0,0,1-1.23,1.231h-.287a1.088,1.088,0,0,1-1.231-1.231V52.58a.906.906,0,0,0-1.025-1.025h-6.112a1.07,1.07,0,0,1-1.23-1.19,1.087,1.087,0,0,1,1.23-1.23h6.112a.907.907,0,0,0,1.025-1.026Z" transform="translate(-23.423 -30)"/><path d="M421.539,64.105q.04-1.19,1.313-1.189,1.313,0,1.271,1.189-.083,1.231.943,1.231h10.213q1.026,0,1.026-1.231,0-1.19,1.271-1.189,1.313,0,1.313,1.189,0,1.231,1.025,1.231h7.137q1.23,0,1.23,1.066t-1.23,1.067h-7.137a.906.906,0,0,0-1.025,1.025v3.322a1.106,1.106,0,0,1-1.272,1.231q-1.312,0-1.312-1.231V68.494a.907.907,0,0,0-1.026-1.025H424.656a1.828,1.828,0,0,0-1.6,1.23,5.98,5.98,0,0,1-1.764,2.215,12.079,12.079,0,0,1-5.455,2.092q-1.353.163-1.6-.7-.369-.986.862-1.19a8.341,8.341,0,0,0,4.88-2.379q.74-1.27-.328-1.271h-6.89q-1.232,0-1.231-1.067t1.231-1.066h7.547Q421.334,65.336,421.539,64.105Zm-4.594-26.824q.821-1.353,1.969-.984,1.19.329.7,1.148-.573.863.534.862h7.71q1.231,0,1.231.943t-1.231.943h-8.9a2.782,2.782,0,0,0-2.01,1.231,7.373,7.373,0,0,1-.943,1.23l-1.477,1.559q-1.23,1.107-2.255.328-1.026-.738.164-1.846A34.866,34.866,0,0,0,416.945,37.281Zm-1.107,10.3q0-1.271,1.189-1.271h25.594a1.088,1.088,0,0,1,1.231,1.23V60.127a1.088,1.088,0,0,1-1.231,1.23H417.068a1.087,1.087,0,0,1-1.23-1.23Zm25.553,2.051q0-1.353-.985-1.354H419.324q-1.024,0-1.025,1.313,0,1.353,1.025,1.353h21.041Q441.391,50.939,441.391,49.627Zm0,4.307q-.042-1.272-1.067-1.272h-21q-1.024,0-1.025,1.231,0,1.27,1.025,1.271h21.041Q441.391,55.164,441.391,53.934Zm0,4.306q0-1.271-1.026-1.271H419.324q-1.024,0-1.025,1.23,0,1.272,1.025,1.272h21.041Q441.391,59.471,441.391,58.24ZM421.908,43.762q-1.067-1.108-.164-1.641a1.621,1.621,0,0,1,2.092.369q.779.984-.205,1.559A1.178,1.178,0,0,1,421.908,43.762Zm11.362-6.44q.573-1.394,1.722-1.107,1.026.328.738,1.025-.327.7.7.7h10.336q1.23,0,1.23.984t-1.23.984H435.607a2.075,2.075,0,0,0-1.722,1.231,21.671,21.671,0,0,1-1.313,2.051q-.944,1.313-1.927.615-.943-.738.041-1.969A27.282,27.282,0,0,0,433.27,37.322Zm6.48,4.471a1.663,1.663,0,0,1,2.133.287q1.067,1.068.082,1.682-1.026.615-2.092-.616Q439.012,42.285,439.75,41.793Z" transform="translate(-23.423 -30)"/><path d="M457.92,37.281q0-1.312,1.107-1.312a1.07,1.07,0,0,1,1.19,1.23v4.963a.907.907,0,0,0,1.025,1.026H462.6q1.23,0,1.23,1.107,0,1.149-1.23,1.148h-1.354a.907.907,0,0,0-1.025,1.026v.943a3.717,3.717,0,0,0,.984,2.215l2.174,2.871a1.97,1.97,0,0,1,.287,2.338q-.7,1.026-1.312-.164a5.458,5.458,0,0,0-1.764-2.5q-.246,0-.369,1.353V71.652q0,1.231-1.149,1.231t-1.148-1.231V55.779q-.164-1.353-.41-1.271a5.328,5.328,0,0,0-.821,1.517,31.49,31.49,0,0,1-1.845,4.594q-.738,1.353-1.477.656a1.619,1.619,0,0,1-.205-2.091,43.048,43.048,0,0,0,4.389-12.633q.205-1.109-.78-1.108H454.68q-1.232,0-1.231-1.107,0-1.148,1.231-1.148H456.9a.907.907,0,0,0,1.025-1.026Zm18.17-.369q0-1.271,1.189-1.148,1.313.123,1.313,1.271a147.506,147.506,0,0,0,1.066,19.236,1.163,1.163,0,0,0,1.231.985h2.871q1.067,0,.451-.7-.615-.616.246-1.231,1.026-.656,2.174.738a2.361,2.361,0,0,0,1.846,1.19h.533q1.23,0,1.23.984,0,1.026-1.23,1.026h-7.752q-1.026,0-.7,1.312a35.308,35.308,0,0,0,1.8,4.635q.206.083,1.272-1.149l1.517-2.091q.738-1.272,1.559-.821.984.576.328,1.641a26.321,26.321,0,0,1-2.5,3.527,1.561,1.561,0,0,0,.041,2.215q1.272,1.847,2.707,1.436a2.272,2.272,0,0,0,.574-1.6l.2-1.353q.165-1.355,1.231-.7a1.788,1.788,0,0,1,1.066,1.969,14.174,14.174,0,0,1-.984,2.789q-2.625,3.938-6.193-.779a1.594,1.594,0,0,0-2.3-.533,27.772,27.772,0,0,1-4.02,2.3q-1.272.533-1.805-.451-.573-1.025.657-1.558a25.83,25.83,0,0,0,4.224-2.42q.9-.7.2-2.01a30.309,30.309,0,0,1-1.968-5.332,1.3,1.3,0,0,0-1.313-1.025h-4.1q-1.026,0-1.231,1.271a1.82,1.82,0,0,0,1.067,1.969,22.365,22.365,0,0,1,2.337,1.517q1.19.945.411,2.01-.7.945-1.928-.287L472.07,64.6q-1.024-.863-1.476.492a14,14,0,0,1-3.856,6.4q-1.312,1.109-2.092.123t.329-1.886a14.667,14.667,0,0,0,4.347-9.352q.042-1.107-.9-1.107h-2.379q-1.23,0-1.23-.985,0-1.024,1.23-1.025h10.336q1.026,0,.861-1.272A184.658,184.658,0,0,1,476.09,36.912Zm-7.547.7q.409-1.394,1.271-1.107,1.066.328.657,1.559a39.228,39.228,0,0,1-2.543,5.7q-.738,1.313.41,1.312l1.066-.082a2.163,2.163,0,0,0,1.559-1.394l.656-1.641q.452-1.23,1.231-1.066.943.206.492,1.353a33.071,33.071,0,0,1-4.676,9.393q-.861,1.189.369,1.025a22.891,22.891,0,0,0,2.5-.861,1.7,1.7,0,0,0,1.025-1.969,4.511,4.511,0,0,0-.328-1.148q-.409-1.231.411-1.682,1.024-.452,1.476,1.025.7,2.256,1.231,4.635.287,1.353-.575,1.723-1.024.452-1.23-.451-.164-.985-1.436-.534a35.157,35.157,0,0,1-5.086,1.354q-1.23.164-1.517-.82a2,2,0,0,1,.7-2.01,20,20,0,0,0,2.953-4.266q.534-.984-.7-.82a14.517,14.517,0,0,0-1.805.451,1.061,1.061,0,0,1-1.394-1.025,2.5,2.5,0,0,1,.2-1.559A27.536,27.536,0,0,0,468.543,37.609Zm14.643-.082q.327-1.476,1.476-1.148.984.328.533,1.682a27.526,27.526,0,0,1-2.256,5.5q-.861,1.27.493,1.23l.656-.082a1.976,1.976,0,0,0,1.517-1.148l.657-1.764q.369-1.23,1.312-1.025.984.329.533,1.64a40.141,40.141,0,0,1-4.347,8.654q-.82,1.026.656.739a11.973,11.973,0,0,0,2.42-.821,1.462,1.462,0,0,0,.656-1.845l-.287-.78q-.492-1.23.492-1.681.9-.369,1.354.984.821,2.256,1.435,4.635a1.207,1.207,0,0,1-.7,1.641q-1.026.369-1.23-.616-.246-.984-1.559-.533a28.177,28.177,0,0,1-4.594,1.149q-1.312.246-1.6-.78a2.158,2.158,0,0,1,.615-2.133,22.713,22.713,0,0,0,2.543-3.773q.533-1.066-.9-.615L482,46.879q-1.353.287-1.558-.82a2.538,2.538,0,0,1,.615-2.789A33.779,33.779,0,0,0,483.186,37.527Z" transform="translate(-23.423 -30)"/><path d="M512.02,37.281q0-1.312,1.148-1.312h.369a1.088,1.088,0,0,1,1.231,1.23v5.332a.906.906,0,0,0,1.025,1.026h12.3a1.087,1.087,0,0,1,1.23,1.23V58.322a1.087,1.087,0,0,1-1.23,1.231h-12.3a.906.906,0,0,0-1.025,1.025v11.4a1.088,1.088,0,0,1-1.231,1.231h-.287a1.087,1.087,0,0,1-1.23-1.231v-11.4a.907.907,0,0,0-1.026-1.025H498.812a1.087,1.087,0,0,1-1.23-1.231V44.787a1.087,1.087,0,0,1,1.23-1.23h12.182a.907.907,0,0,0,1.026-1.026Zm0,9.721q0-1.067-.985-1.066H501.4a.906.906,0,0,0-1.025,1.025v9.146a.907.907,0,0,0,1.025,1.026h9.6a.907.907,0,0,0,1.026-1.026Zm14.56,0q0-1.067-.984-1.066h-9.8a.906.906,0,0,0-1.025,1.025v9.146a.906.906,0,0,0,1.025,1.026h9.762a.907.907,0,0,0,1.025-1.026Z" transform="translate(-23.423 -30)"/><path d="M541.387,49.873q.2-1.23,1.394-.82a1.558,1.558,0,0,1,1.026,2.009q-1.189,7.22-3.159,14.807-.369,1.23-1.6.574a1.6,1.6,0,0,1-1.026-2.009Q539.952,57.626,541.387,49.873Zm6.972-2.666a1.088,1.088,0,0,1,1.231-1.23h.369a1.087,1.087,0,0,1,1.23,1.23V66.73q-.45,1.56,1.395,2.133a9.359,9.359,0,0,0,2.666.287h4.184q1.722-.083,3.445-.328a2.676,2.676,0,0,0,1.476-1.312,13.328,13.328,0,0,0,.862-4.84q.041-1.476,1.271-.779a2.349,2.349,0,0,1,1.436,2.132,15.428,15.428,0,0,1-1.6,6.153,9.124,9.124,0,0,1-5.619,1.517l-1.394.041h-4.143l-3.445-.246a3.914,3.914,0,0,1-3.118-1.681l-.246-.821Zm2.953-9.721a1.478,1.478,0,0,1,2.256.041,67.674,67.674,0,0,1,8.039,8.244,1.84,1.84,0,0,1,0,2.461q-1.148,1.395-1.968.247a72.109,72.109,0,0,0-8.819-9.6Q550.411,38.512,551.312,37.486Zm16.94,11.034a1.215,1.215,0,0,1,1.887.738,117.037,117.037,0,0,1,4.265,12.8,1.375,1.375,0,0,1-.82,1.8.545.545,0,0,1-.328.123q-1.478.657-1.764-.615a92.494,92.494,0,0,0-3.855-12.838Q567.063,49.094,568.252,48.52Z" transform="translate(-23.423 -30)"/><path d="M267.524,100.953h10.56a2.629,2.629,0,0,1,2.64,2.639v13.2h-1.782v-5.787H266.666v5.787h-1.782v-13.2a2.629,2.629,0,0,1,2.64-2.639Zm-.858,8.272h12.276v-5.633a.866.866,0,0,0-.858-.858h-10.56a.866.866,0,0,0-.858.858Z" transform="translate(-23.423 -30)"/><path d="M283.144,99.852h1.8v14.279a.862.862,0,0,0,.858.857h2.156v1.805h-2.156a2.667,2.667,0,0,1-2.662-2.662Z" transform="translate(-23.423 -30)"/><path d="M308.268,104.033h1.959l-4.819,12.76h-1.562l-4.752-10.539-4.51,10.539H293l-5.016-12.76h1.936l3.872,9.5,4.114-9.5h2.376l4.378,9.481Z" transform="translate(-23.423 -30)"/><path d="M322.238,104.033a2.591,2.591,0,0,1,1.9.781,2.561,2.561,0,0,1,.781,1.881v10.1h-10.34a2.667,2.667,0,0,1-2.662-2.662V109.51H323.1V106.7a.864.864,0,0,0-.858-.859H311.92v-1.8Zm.858,10.955v-3.674h-9.371v2.817a.86.86,0,0,0,.857.857Z" transform="translate(-23.423 -30)"/><path d="M339.947,119.168a2.612,2.612,0,0,1-.769,1.9,2.558,2.558,0,0,1-1.893.78h-7.963v-1.825h7.963a.864.864,0,0,0,.858-.859v-2.375h-8.514a2.667,2.667,0,0,1-2.662-2.662V104.076h1.8v10.055a.864.864,0,0,0,.858.857h7.656a.86.86,0,0,0,.858-.857V104.076h1.8Z" transform="translate(-23.423 -30)"/><path d="M355.172,106.7v.176h-1.826V106.7a.867.867,0,0,0-.858-.859h-7.656a.864.864,0,0,0-.857.859v1.957a.86.86,0,0,0,.857.858h7.656a2.594,2.594,0,0,1,1.9.781,2.564,2.564,0,0,1,.781,1.881v1.959a2.667,2.667,0,0,1-2.684,2.662h-7.656a2.667,2.667,0,0,1-2.662-2.662v-.176h1.805v.176a.86.86,0,0,0,.857.857h7.656a.864.864,0,0,0,.858-.857v-1.959a.867.867,0,0,0-.858-.858h-7.656a2.667,2.667,0,0,1-2.662-2.662V106.7a2.667,2.667,0,0,1,2.662-2.662h7.656a2.591,2.591,0,0,1,1.9.781A2.561,2.561,0,0,1,355.172,106.7Z" transform="translate(-23.423 -30)"/><path d="M383.242,104.033H385.2l-4.818,12.76H378.82l-4.752-10.539-4.509,10.539h-1.584l-5.016-12.76H364.9l3.873,9.5,4.113-9.5h2.377l4.377,9.481Z" transform="translate(-23.423 -30)"/><path d="M386.9,99.852h1.8v1.8h-1.8Zm0,16.941v-12.76h1.8v12.76Z" transform="translate(-23.423 -30)"/><path d="M398.818,105.836H393.3v8.3a.86.86,0,0,0,.857.857h4.664v1.805h-4.664a2.552,2.552,0,0,1-1.892-.781,2.592,2.592,0,0,1-.77-1.881V99.852H393.3v4.181h5.521Z" transform="translate(-23.423 -30)"/><path d="M410.984,104.033a2.667,2.667,0,0,1,2.662,2.662v10.1h-1.8V106.7a.864.864,0,0,0-.858-.859h-7.656a.865.865,0,0,0-.615.254.809.809,0,0,0-.264.6v10.1h-1.8V99.852h1.8v4.181Z" transform="translate(-23.423 -30)"/><path d="M434.041,119.168a2.614,2.614,0,0,1-.771,1.9,2.554,2.554,0,0,1-1.891.78h-7.965v-1.825h7.965a.867.867,0,0,0,.857-.859v-2.375h-8.513a2.667,2.667,0,0,1-2.662-2.662V104.076h1.8v10.055a.864.864,0,0,0,.86.857h7.656a.864.864,0,0,0,.857-.857V104.076h1.805Z" transform="translate(-23.423 -30)"/><path d="M438.484,104.033h7.657a2.667,2.667,0,0,1,2.683,2.662v7.436a2.667,2.667,0,0,1-2.683,2.662h-7.657a2.668,2.668,0,0,1-2.662-2.662V106.7a2.668,2.668,0,0,1,2.662-2.662Zm7.657,1.8h-7.657a.867.867,0,0,0-.859.859v7.436a.864.864,0,0,0,.859.857h7.657a.864.864,0,0,0,.857-.857V106.7a.867.867,0,0,0-.857-.859Z" transform="translate(-23.423 -30)"/><path d="M461.781,104.033h1.805v10.1a2.667,2.667,0,0,1-2.684,2.662h-7.656a2.667,2.667,0,0,1-2.662-2.662v-10.1h1.8v10.1a.832.832,0,0,0,.254.605.824.824,0,0,0,.6.252H460.9a.864.864,0,0,0,.616-.252.815.815,0,0,0,.263-.605Z" transform="translate(-23.423 -30)"/><path d="M465.984,112.326V100.953h1.8v11.373Zm1.8,4.467h-1.8v-1.805h1.8Z" transform="translate(-23.423 -30)"/></g></svg>
